<?xml version="1.0" encoding="UTF-8" standalone="no"?>
<!DOCTYPE svg PUBLIC "-//W3C//DTD SVG 1.1//EN" "http://www.w3.org/Graphics/SVG/1.1/DTD/svg11.dtd">
<svg width="100%" height="100%" viewBox="0 0 1600 350" version="1.1" xmlns="http://www.w3.org/2000/svg" xmlns:xlink="http://www.w3.org/1999/xlink" xml:space="preserve" xmlns:serif="http://www.serif.com/" style="fill-rule:evenodd;clip-rule:evenodd;stroke-linejoin:round;stroke-miterlimit:2;">
    <g transform="matrix(1.03448,0,0,1.03448,-322.586,-119.828)">
        <path d="M510,140L690,430L330,430L510,140Z" style="fill:rgb(2,17,31);"/>
    </g>
    <g transform="matrix(1,0,0,1,-305,-105)">
        <path d="M524.63,270.376L590,375.694L425.812,375.694L474.433,297.361L491.204,324.33L524.63,270.376Z" style="fill:rgb(241,242,242);"/>
    </g>
    <g transform="matrix(1,0,0,1,-305,-105)">
        <path d="M510,130L696.207,430L323.793,430L510,130ZM508.11,190L641,404.101L375.22,404.101L508.11,190Z" style="fill:rgb(68,148,150);"/>
    </g>
    <g id="APEX" transform="matrix(1.97379,0,0,1.97379,24.4985,-1072.99)">
        <g transform="matrix(1,0,0,1,0,0.0228911)">
            <path d="M719.16,613.277L744.597,584.477L779.5,584.501L736.439,632.298L782,682.457L746.808,682.48L719.18,651.455L691.23,682.48L658.5,681.957L702.241,632.433L660,585L693,584.477L719.16,613.277Z" style="fill:rgb(241,242,242);"/>
        </g>
        <g>
            <g transform="matrix(0.861345,0,0,1.07143,71.7395,31.6429)">
                <rect x="521" y="586" width="119" height="21" style="fill:rgb(241,242,242);"/>
            </g>
            <g transform="matrix(0.861345,0,0,1.07143,71.7895,-5.35714)">
                <rect x="521" y="586" width="119" height="21" style="fill:rgb(241,242,242);"/>
            </g>
            <g transform="matrix(0.861345,0,0,1.07143,71.7895,-43.3571)">
                <rect x="521" y="586" width="119" height="21" style="fill:rgb(241,242,242);"/>
            </g>
        </g>
        <g>
            <g transform="matrix(0.230672,0,0,4.69048,259.37,-2164.12)">
                <rect x="521" y="586" width="119" height="21" style="fill:rgb(241,242,242);"/>
            </g>
            <path d="M404.173,608.443L448.173,608.443C458.74,608.443 458.58,619.845 458.58,621.5C458.58,623.042 458.822,634.894 448.173,634.894C411.15,634.894 406.322,635.058 403,635.058C396.409,635.058 391.058,640.409 391.058,647C391.058,653.591 396.409,658.943 403,658.943C406.322,658.943 411.15,658.779 448.173,658.779C479.973,658.779 482.465,626.104 482.465,621.5C482.465,616.505 480.072,584.558 448.173,584.558L404.173,584.558C397.581,584.558 392.23,589.909 392.23,596.5C392.23,603.091 397.581,608.443 404.173,608.443Z" style="fill:rgb(241,242,242);"/>
        </g>
        <g transform="matrix(1,0,0,1.00021,0,-0.12415)">
            <path d="M220,682.629L282.395,584.15L344.742,682.457L316.808,682.48L282.837,630L250,682.554L220,682.629Z" style="fill:rgb(241,242,242);"/>
        </g>
    </g>
</svg>
